<svg width="157" height="32" viewBox="0 0 157 32" fill="none" xmlns="http://www.w3.org/2000/svg">
<g clip-path="url(#clip0_162_2574)">
<path fill-rule="evenodd" clip-rule="evenodd" d="M4.726 27.457C4.27891 27.0377 3.90274 26.5487 3.61212 26.009C3.94755 26.5182 4.31984 27.0022 4.726 27.457Z" fill="black"/>
<path fill-rule="evenodd" clip-rule="evenodd" d="M20.7817 6.81852C20.4475 6.65144 20.1134 6.50027 19.7633 6.35706C20.1134 6.49231 20.4475 6.65144 20.7817 6.81852Z" fill="black"/>
<path fill-rule="evenodd" clip-rule="evenodd" d="M21.9115 7.48679L21.824 7.42314V7.38336C21.837 7.38673 21.8507 7.38673 21.8638 7.38336L21.9115 7.48679Z" fill="black"/>
<path fill-rule="evenodd" clip-rule="evenodd" d="M20.7817 6.81852C20.4475 6.65144 20.1134 6.50027 19.7633 6.35706C20.1134 6.49231 20.4475 6.65144 20.7817 6.81852Z" fill="black"/>
<path fill-rule="evenodd" clip-rule="evenodd" d="M26.8841 13.263C26.846 13.2027 26.814 13.1388 26.7886 13.0721L26.8841 13.263Z" fill="black"/>
<path d="M7.55044 6.723C7.55044 6.89453 7.49958 7.0622 7.40429 7.20481C7.30899 7.34743 7.17355 7.45858 7.01508 7.52422C6.85662 7.58986 6.68225 7.60703 6.51402 7.57357C6.34579 7.54011 6.19127 7.45751 6.06998 7.33623C5.9487 7.21494 5.86611 7.06042 5.83264 6.89219C5.79918 6.72397 5.81635 6.54959 5.88199 6.39113C5.94763 6.23266 6.05879 6.09722 6.2014 6.00193C6.34402 5.90664 6.51169 5.85577 6.68321 5.85577C6.91321 5.85577 7.1338 5.94714 7.29643 6.10978C7.45907 6.27242 7.55044 6.493 7.55044 6.723Z" fill="#19D342"/>
<path fill-rule="evenodd" clip-rule="evenodd" d="M0.397772 11.2979C0.334122 11.6161 0.294341 11.9344 0.238647 12.2446C0.25456 11.9344 0.31821 11.6161 0.397772 11.2979Z" fill="black"/>
<path fill-rule="evenodd" clip-rule="evenodd" d="M27.9821 18.8802C27.9782 18.8618 27.9782 18.8428 27.9821 18.8245C27.9859 18.7768 27.9859 18.7289 27.9821 18.6813C27.9945 17.2522 27.7741 15.8307 27.3297 14.4724C27.2501 14.2337 27.1626 13.995 27.0671 13.7723C26.9716 13.5495 26.9398 13.4699 26.8682 13.3187C26.8301 13.2585 26.7981 13.1945 26.7727 13.1278C26.5897 12.7379 26.3908 12.3322 26.176 11.9901C26.1203 11.8787 26.0567 11.7752 25.993 11.6718C25.9294 11.5684 25.7225 11.2501 25.5713 11.0433C25.4202 10.8364 25.4202 10.8444 25.3406 10.7409C24.603 9.7754 23.7386 8.91368 22.7708 8.17902L22.5798 7.95624C22.3491 7.79712 22.1024 7.64595 21.9115 7.50273L21.824 7.43909V7.3993C21.4818 7.2004 21.1477 7.0174 20.8135 6.84237C20.4794 6.66733 20.1452 6.52412 19.7951 6.38091L19.5166 6.26952L19.2382 6.16609H19.1427H19.0313H18.9438C18.8961 6.16609 18.8483 6.16609 18.8006 6.11039L18.6494 6.06265C17.7392 5.77914 16.7996 5.6003 15.8488 5.52959L15.8409 0L15.0452 0.2546L12.9289 0.86723C11.7673 1.19344 10.6375 1.51964 9.5793 1.88563C8.97945 1.57507 8.31345 1.41403 7.63798 1.41621C6.52416 1.4097 5.4525 1.84168 4.65454 2.61879C3.85658 3.3959 3.3964 4.45576 3.37344 5.56937C1.96104 7.09645 0.961524 8.95856 0.469409 10.9796C0.469409 11.083 0.413715 11.1944 0.397802 11.2979C0.334153 11.6161 0.294371 11.9344 0.238678 12.2447C0.0528566 13.458 -0.0270072 14.6853 -9.61544e-06 15.9125V16.3899H0.556927C4.48731 16.3899 11.5127 15.5942 14.1223 15.268C14.3669 15.416 14.6008 15.5808 14.8225 15.7613C15.9524 16.6685 16.7735 17.9035 17.1727 19.2965C17.5718 20.6895 17.5294 22.172 17.0514 23.5399C16.5733 24.9078 15.683 26.0939 14.5031 26.935C13.3231 27.7761 11.9115 28.2309 10.4624 28.2367C9.66682 28.2367 5.91943 27.9662 4.51913 24.9508C4.25633 24.2949 4.15535 23.5853 4.22475 22.8821C4.32264 21.921 4.72866 21.0172 5.38224 20.3057C6.03581 19.5942 6.90191 19.1131 7.85131 18.9342C8.80072 18.7552 9.78254 18.888 10.6503 19.3127C11.5181 19.7374 12.2252 20.4313 12.6663 21.2909C12.6868 21.4155 12.7477 21.5298 12.8398 21.6161C12.9319 21.7024 13.0499 21.7559 13.1755 21.7683C13.3276 21.7502 13.4666 21.6737 13.5632 21.5549C13.6597 21.436 13.7062 21.2843 13.6927 21.1318C13.6932 21.0276 13.6715 20.9245 13.629 20.8294L13.8041 20.7419C13.1352 19.3703 11.9488 18.3207 10.5059 17.8238C9.06309 17.3269 7.48197 17.4236 6.11038 18.0925C4.7388 18.7614 3.68912 19.9478 3.19226 21.3906C2.69539 22.8335 2.79205 24.4146 3.46096 25.7862L3.59621 26.0487C3.93164 26.558 4.30393 27.0419 4.71008 27.4968C5.92563 28.8906 7.41923 30.0148 9.09497 30.7971C10.7707 31.5795 12.5916 32.0028 14.4406 32.0398H14.727H15.3635C16.4817 31.987 17.5886 31.7918 18.6574 31.459C18.9597 31.3715 19.2461 31.268 19.5326 31.1566C20.6355 30.7229 21.6762 30.145 22.6275 29.4381C22.9697 29.1835 23.3197 28.905 23.638 28.6425C24.1154 28.2049 24.4973 27.7514 24.9746 27.2581C24.9797 27.2399 24.9797 27.2206 24.9746 27.2024C25.1181 27.1012 25.2443 26.9776 25.3486 26.8364C25.4072 26.7579 25.4603 26.6755 25.5077 26.5898C25.5554 26.5022 25.5952 26.4147 25.6509 26.3272C25.6745 26.283 25.7011 26.2405 25.7305 26.1999C26.4587 25.1066 27.0191 23.9106 27.3933 22.6514C27.6913 21.4728 27.8778 20.2687 27.9503 19.0552C27.9503 19.0552 27.9821 18.8961 27.9821 18.8802ZM5.13177 3.97812C5.39159 3.60173 5.73362 3.28938 6.13198 3.0647C6.53035 2.84001 6.9746 2.70889 7.43112 2.68125H7.61411C8.2578 2.67771 8.88453 2.88755 9.39631 3.27797C9.78868 3.57567 10.1015 3.96564 10.3069 4.41326C10.5124 4.86088 10.6042 5.35231 10.5741 5.84391C10.544 6.33551 10.393 6.81208 10.1345 7.23132C9.87601 7.65055 9.518 7.99947 9.09226 8.24711C8.66652 8.49475 8.18622 8.63344 7.69401 8.65088C7.20179 8.66831 6.71289 8.56394 6.2707 8.34704C5.82851 8.13015 5.44671 7.80743 5.15919 7.40753C4.87168 7.00764 4.68735 6.54294 4.62257 6.0547C4.61466 5.92752 4.61466 5.79998 4.62257 5.6728C4.62046 5.06991 4.7977 4.48001 5.13177 3.97812ZM14.4167 13.4381V14.0189L13.0482 14.1939C10.176 14.552 4.69417 15.1805 1.20138 15.2521C1.2223 14.3835 1.29937 13.5171 1.43211 12.6584C3.42953 13.2152 5.51956 13.3587 7.57433 13.0801C9.60317 12.7698 11.0751 11.9582 11.8309 10.7409L10.7568 10.0726C10.0567 11.2024 8.53704 11.6638 7.38338 11.8309C5.47626 12.0866 3.53689 11.9457 1.68671 11.4172C2.03237 9.87499 2.70228 8.42399 3.65191 7.16062C3.88418 7.73057 4.23751 8.24325 4.68745 8.66319C5.1374 9.08313 5.6732 9.4003 6.2578 9.59276C6.8424 9.78522 7.46184 9.84836 8.07325 9.77783C8.68466 9.7073 9.27345 9.50477 9.79887 9.18426C10.3243 8.86375 10.7738 8.43291 11.1163 7.92156C11.4588 7.4102 11.6861 6.83053 11.7825 6.22267C11.8789 5.6148 11.8421 4.99324 11.6746 4.401C11.5072 3.80877 11.213 3.25999 10.8125 2.79264C11.6081 2.53804 12.4436 2.30731 13.2949 2.06067L14.5997 1.67877L14.4167 13.4381ZM25.9294 23.0731C25.6755 23.7254 25.3639 24.3538 24.9985 24.9508C24.5227 24.5153 23.901 24.274 23.2561 24.2745C22.5743 24.2869 21.9242 24.5649 21.4443 25.0493C20.9643 25.5337 20.6923 26.1863 20.6862 26.8682C20.6904 27.212 20.7629 27.5515 20.8995 27.8671C21.0361 28.1826 21.234 28.4678 21.4818 28.7061C20.7874 29.172 20.0461 29.564 19.27 29.8757C19.0386 29.4693 18.7022 29.1325 18.2961 28.9007C17.89 28.6688 17.429 28.5503 16.9614 28.5577C16.4938 28.565 16.0368 28.6978 15.6381 28.9423C15.2394 29.1867 14.9137 29.5339 14.6952 29.9473C14.5636 30.1966 14.4723 30.4651 14.4247 30.7429C12.6146 30.6961 10.8397 30.2333 9.23719 29.3904C9.66383 29.4544 10.0947 29.4863 10.5261 29.4858C12.2316 29.478 13.8932 28.9437 15.2837 27.9561C16.6743 26.9685 17.726 25.5757 18.2953 23.968C18.8646 22.3602 18.9236 20.6159 18.4644 18.9734C18.0052 17.3308 17.05 15.87 15.7295 14.7907V14.2894L15.825 6.71507C16.4737 6.81831 17.1165 6.95642 17.7504 7.12879C17.6286 7.43233 17.5665 7.75649 17.5674 8.08354C17.5709 8.6577 17.7626 9.21487 18.1131 9.6697C18.4635 10.1245 18.9534 10.4519 19.5076 10.6018C20.0619 10.7517 20.65 10.7157 21.1819 10.4994C21.7138 10.2831 22.1601 9.89843 22.4525 9.40428C23.0015 9.85782 23.51 10.3583 23.9721 10.9C23.4396 11.1584 23.0103 11.5897 22.7544 12.1234C22.4985 12.6572 22.4311 13.2619 22.5631 13.8389C22.6951 14.4159 23.0188 14.9312 23.4813 15.3005C23.9439 15.6699 24.518 15.8716 25.1099 15.8727C25.5682 15.8741 26.0186 15.7532 26.4147 15.5226C26.6334 16.3177 26.7667 17.1339 26.8125 17.9572C26.555 17.8761 26.2869 17.8332 26.0169 17.8299C25.3227 17.8299 24.6569 18.1057 24.166 18.5966C23.6751 19.0875 23.3993 19.7533 23.3993 20.4475C23.3993 21.1418 23.6751 21.8076 24.166 22.2985C24.6569 22.7894 25.3227 23.0651 26.0169 23.0651L25.9294 23.0731Z" fill="#19D342"/>
<path fill-rule="evenodd" clip-rule="evenodd" d="M3.61213 26.009L3.453 25.7623L3.61213 26.009Z" fill="black"/>
</g>
<path d="M49.3098 20.804V7.7H45.4698V24.5H55.3098V20.804H49.3098ZM58.6811 11.444C59.8571 11.444 60.8411 10.46 60.8411 9.284C60.8411 8.108 59.8571 7.124 58.6811 7.124C57.5051 7.124 56.5211 8.108 56.5211 9.284C56.5211 10.46 57.5051 11.444 58.6811 11.444ZM56.8811 24.5H60.4811V12.5H56.8811V24.5ZM70.1475 12.164C68.5635 12.164 67.3635 12.74 66.7155 13.628V12.5H63.1155V24.5H66.7155V17.948C66.7155 16.244 67.6275 15.476 68.9475 15.476C70.0995 15.476 71.0355 16.172 71.0355 17.66V24.5H74.6355V17.132C74.6355 13.892 72.5715 12.164 70.1475 12.164ZM85.9157 12.5V13.724C85.1237 12.74 83.9717 12.164 82.4117 12.164C79.0037 12.164 76.5077 14.948 76.5077 18.26C76.5077 21.572 79.0037 24.356 82.4117 24.356C83.9717 24.356 85.1237 23.78 85.9157 22.796V23.9C85.9157 25.604 84.8837 26.468 83.2037 26.468C81.6197 26.468 80.9237 25.796 80.4677 24.956L77.3957 26.732C78.4997 28.7 80.5877 29.636 83.0837 29.636C86.2757 29.636 89.4197 27.932 89.4197 23.9V12.5H85.9157ZM83.0117 21.044C81.3077 21.044 80.1077 19.916 80.1077 18.26C80.1077 16.604 81.3077 15.476 83.0117 15.476C84.7157 15.476 85.9157 16.604 85.9157 18.26C85.9157 19.916 84.7157 21.044 83.0117 21.044ZM99.8128 12.5V19.052C99.8128 20.756 98.9008 21.524 97.5808 21.524C96.4288 21.524 95.4928 20.828 95.4928 19.34V12.5H91.8928V19.868C91.8928 23.108 93.9568 24.836 96.3808 24.836C97.9648 24.836 99.1648 24.26 99.8128 23.372V24.5H103.413V12.5H99.8128ZM114.765 12.5V13.628C113.973 12.716 112.797 12.164 111.189 12.164C108.045 12.164 105.453 14.924 105.453 18.5C105.453 22.076 108.045 24.836 111.189 24.836C112.797 24.836 113.973 24.284 114.765 23.372V24.5H118.365V12.5H114.765ZM111.909 21.428C110.253 21.428 109.053 20.3 109.053 18.5C109.053 16.7 110.253 15.572 111.909 15.572C113.565 15.572 114.765 16.7 114.765 18.5C114.765 20.3 113.565 21.428 111.909 21.428ZM128.038 12.164C126.454 12.164 125.254 12.74 124.606 13.628V12.5H121.006V24.5H124.606V17.948C124.606 16.244 125.518 15.476 126.838 15.476C127.99 15.476 128.926 16.172 128.926 17.66V24.5H132.526V17.132C132.526 13.892 130.462 12.164 128.038 12.164ZM143.71 12.5V13.628C142.918 12.716 141.742 12.164 140.134 12.164C136.99 12.164 134.398 14.924 134.398 18.5C134.398 22.076 136.99 24.836 140.134 24.836C141.742 24.836 142.918 24.284 143.71 23.372V24.5H147.31V12.5H143.71ZM140.854 21.428C139.198 21.428 137.998 20.3 137.998 18.5C137.998 16.7 139.198 15.572 140.854 15.572C142.51 15.572 143.71 16.7 143.71 18.5C143.71 20.3 142.51 21.428 140.854 21.428ZM151.991 24.836C153.239 24.836 154.271 23.804 154.271 22.556C154.271 21.308 153.239 20.276 151.991 20.276C150.743 20.276 149.711 21.308 149.711 22.556C149.711 23.804 150.743 24.836 151.991 24.836Z" fill="#19D342"/>
<defs>
<clipPath id="clip0_162_2574">
<rect width="28.0298" height="32" fill="white"/>
</clipPath>
</defs>
</svg>
